<svg width="22" height="28" viewBox="0 0 22 28" fill="none" xmlns="http://www.w3.org/2000/svg">
<path d="M18.3217 26.8724C16.9068 28.3464 15.3457 28.1166 13.8577 27.4217C12.2757 26.7127 10.8295 26.6679 9.15873 27.4217C7.07813 28.3856 5.97387 28.1054 4.7208 26.8724C-2.35377 19.0545 -1.30955 7.14544 6.73092 6.6971C8.681 6.80918 10.0463 7.85438 11.195 7.94124C12.9023 7.56856 14.5365 6.50095 16.3638 6.64105C18.5593 6.8316 20.2013 7.76191 21.2978 9.43478C16.7815 12.349 17.8518 18.7379 22 20.5312C21.1698 22.871 20.1047 25.1828 18.3191 26.8921L18.3217 26.8724ZM11.0383 6.61303C10.8269 3.13839 13.4505 0.280213 16.4683 0C16.8833 4.00705 13.0745 7.00533 11.0383 6.61303Z" fill="#182C2A"/>
</svg>
